<svg width="13" height="13" viewBox="0 0 13 13" fill="none" xmlns="http://www.w3.org/2000/svg">
<path d="M4.625 5.875H3.375V7.125H4.625V5.875ZM7.125 5.875H5.875V7.125H7.125V5.875ZM9.625 5.875H8.375V7.125H9.625V5.875ZM10.875 1.5H10.25V0.25H9V1.5H4V0.25H2.75V1.5H2.125C1.43125 1.5 0.88125 2.0625 0.88125 2.75L0.875 11.5C0.875 12.1875 1.43125 12.75 2.125 12.75H10.875C11.5625 12.75 12.125 12.1875 12.125 11.5V2.75C12.125 2.0625 11.5625 1.5 10.875 1.5ZM10.875 11.5H2.125V4.625H10.875V11.5Z" fill="white"/>
</svg>
